<?xml version="1.0" standalone="no"?>
<!DOCTYPE svg PUBLIC "-//W3C//DTD SVG 20010904//EN"
 "http://www.w3.org/TR/2001/REC-SVG-20010904/DTD/svg10.dtd">
<svg version="1.0" xmlns="http://www.w3.org/2000/svg"
 width="876.000000pt" height="876.000000pt" viewBox="0 0 876.000000 876.000000"
 preserveAspectRatio="xMidYMid meet">
<metadata>
Created by potrace 1.14, written by Peter Selinger 2001-2017
</metadata>
<g transform="translate(0.000000,876.000000) scale(0.100000,-0.100000)"
fill="#000000" stroke="none">
<path d="M4180 8350 c-1043 -60 -2006 -511 -2715 -1270 -448 -480 -780 -1086
-950 -1735 -188 -716 -171 -1490 48 -2190 189 -602 496 -1118 932 -1564 309
-316 622 -546 1015 -745 829 -421 1746 -552 2645 -380 1111 213 2071 880 2648
1839 702 1168 764 2598 164 3820 -133 270 -292 519 -485 760 -114 141 -397
428 -534 541 -545 449 -1189 749 -1868 868 -284 50 -627 71 -900 56z m-1395
-639 c-11 -10 -31 -22 -45 -25 -18 -5 -14 0 15 18 48 31 56 33 30 7z m-93 -96
c-4 -49 -31 -77 -88 -91 -16 -4 -43 -17 -59 -30 -24 -18 -38 -22 -73 -17 -37
5 -45 3 -63 -21 -15 -19 -30 -26 -55 -26 -32 0 -37 -4 -55 -44 -21 -49 -53
-66 -120 -66 -22 0 -39 -4 -39 -10 0 -9 -39 -34 -45 -28 -1 2 2 14 7 28 6 17
11 21 17 12 6 -10 10 -10 18 0 14 19 24 50 14 44 -5 -3 -9 10 -9 29 0 22 4 33
11 28 6 -4 8 0 4 10 -4 11 -2 14 7 11 8 -3 17 -1 21 5 3 6 2 11 -4 11 -6 0 -8
7 -4 16 3 8 12 13 19 10 8 -3 14 -2 14 3 0 5 14 14 30 21 17 7 38 23 48 34 35
45 66 57 121 50 39 -5 56 -3 69 9 22 20 138 56 182 56 l35 1 -3 -45z m1918
-431 c-6 -14 -10 -43 -10 -65 0 -34 -5 -43 -30 -57 -21 -12 -31 -27 -35 -53
-5 -31 -11 -38 -37 -43 -17 -3 -41 -6 -53 -6 -18 0 -26 -8 -35 -35 -15 -45 -6
-72 31 -90 22 -12 29 -23 29 -44 0 -16 3 -37 6 -46 7 -18 65 -45 98 -45 56 0
96 -21 116 -60 11 -22 22 -40 24 -40 2 0 20 7 40 15 34 14 39 14 66 -2 28 -16
31 -16 66 1 l37 17 36 -34 c20 -19 49 -38 65 -41 49 -12 86 -47 98 -94 10 -40
15 -46 73 -73 67 -31 89 -35 131 -18 48 18 102 19 115 3 10 -12 9 -16 -8 -20
-20 -5 -20 -8 -7 -52 7 -26 18 -67 24 -92 7 -25 16 -58 20 -74 8 -24 6 -29
-11 -33 -18 -5 -18 -8 -6 -27 20 -30 31 -86 18 -86 -12 0 -4 -48 10 -64 5 -6
9 -23 9 -39 0 -28 -1 -29 -37 -23 -21 4 -48 18 -59 30 -16 18 -36 26 -80 30
-94 10 -108 10 -135 2 -23 -6 -27 -3 -44 33 -10 23 -22 41 -27 41 -5 0 -37 29
-73 65 -56 57 -71 67 -127 81 -35 9 -76 27 -91 40 -16 13 -35 24 -43 24 -21 0
-84 34 -118 64 -21 19 -40 26 -71 26 -26 0 -60 10 -89 25 -79 42 -85 21 -16
-60 48 -56 61 -79 65 -115 13 -103 37 -249 51 -307 8 -34 14 -81 14 -105 -1
-66 -44 -206 -90 -290 -6 -10 -10 -25 -10 -33 0 -8 -7 -15 -16 -15 -10 0 -14
-6 -11 -14 4 -11 1 -13 -10 -9 -12 5 -15 2 -10 -10 4 -10 -3 -23 -18 -36 -14
-10 -25 -23 -25 -28 0 -11 -53 -63 -64 -63 -9 0 -36 -26 -36 -35 0 -3 5 -3 12
1 7 4 8 3 4 -4 -4 -6 -13 -9 -21 -5 -8 3 -15 0 -15 -6 0 -6 -9 -11 -20 -11
-19 0 -25 -11 -20 -35 1 -5 -4 -4 -11 3 -18 17 -26 15 -32 -9 -4 -14 -11 -20
-21 -16 -8 3 -17 1 -20 -6 -3 -7 -5 7 -3 30 1 23 -1 39 -6 36 -12 -7 -4 -143
8 -142 38 4 69 -5 111 -34 44 -29 53 -31 87 -23 30 8 40 7 48 -5 10 -15 7 -83
-5 -111 -6 -13 3 -24 41 -48 26 -17 65 -36 86 -42 55 -17 65 -33 37 -63 -13
-14 -29 -25 -37 -25 -7 0 -13 -4 -13 -10 0 -5 -5 -10 -10 -10 -6 0 -23 -9 -39
-21 -25 -19 -32 -19 -69 -8 -23 7 -49 20 -58 31 -12 12 -31 18 -62 18 -36 0
-49 5 -72 30 -34 36 -63 38 -143 10 -31 -11 -80 -20 -108 -20 l-52 0 6 -40 c5
-38 3 -40 -36 -62 -30 -17 -44 -32 -51 -56 -5 -19 -20 -41 -33 -49 -13 -8 -23
-20 -23 -25 0 -23 -28 -34 -78 -32 -48 1 -77 13 -77 32 0 5 -35 67 -50 90 -2
1 -30 -5 -64 -14 -51 -14 -68 -15 -95 -6 -45 16 -54 15 -61 -8 -10 -32 -40
-43 -81 -30 -27 9 -38 9 -49 0 -17 -14 -50 -5 -40 10 4 6 11 8 16 5 5 -4 9 2
9 12 0 11 5 24 11 30 9 9 9 23 1 55 -11 41 -10 44 19 66 33 26 63 78 51 86 -5
3 -28 8 -50 12 -23 4 -42 9 -42 11 0 9 57 58 86 74 16 9 28 20 27 25 -1 5 10
10 24 11 22 1 94 62 75 63 -4 0 2 7 12 15 17 13 17 17 5 32 -13 16 -12 17 4 4
20 -16 30 -12 18 7 -4 7 -23 14 -42 14 -32 1 -98 30 -109 48 -3 5 -14 2 -25
-6 -17 -13 -18 -16 -5 -24 8 -5 10 -10 4 -10 -17 0 -58 39 -50 47 4 4 11 1 17
-7 8 -13 10 -13 19 0 7 11 5 16 -5 18 -25 6 -17 22 15 28 35 7 99 73 129 133
12 22 21 43 21 46 0 8 -158 -5 -185 -15 -12 -4 -29 -24 -40 -44 -22 -40 -29
-43 -51 -21 -8 8 -21 12 -28 9 -7 -3 -16 2 -19 10 -9 22 -45 20 -91 -5 -30
-16 -41 -18 -46 -8 -6 9 -17 7 -45 -9 -36 -22 -82 -22 -96 0 -3 5 -30 -13 -60
-40 -57 -51 -99 -82 -111 -82 -4 0 -19 21 -32 48 -41 77 -39 75 -77 59 -28
-12 -39 -25 -62 -81 -15 -36 -27 -76 -27 -89 0 -12 -11 -35 -25 -51 -32 -37
-39 -66 -31 -116 4 -25 2 -40 -4 -40 -5 0 -10 -4 -10 -10 0 -5 7 -10 15 -10 9
0 15 -9 15 -22 0 -20 -2 -19 -25 8 -14 16 -25 35 -25 42 0 6 -4 12 -10 12 -5
0 -21 21 -34 48 -14 26 -36 60 -50 76 -16 18 -26 41 -26 60 0 20 -7 37 -20 46
-11 8 -20 22 -20 32 0 10 -4 18 -10 18 -5 0 -10 18 -10 40 0 22 -4 40 -10 40
-5 0 -10 6 -10 14 0 9 -7 13 -20 11 -14 -3 -20 2 -20 15 0 10 5 20 12 22 7 3
9 12 4 23 -5 14 -9 16 -15 7 -4 -7 -12 1 -20 24 -12 33 -11 38 7 56 17 17 18
25 9 61 -6 23 -17 48 -24 55 -13 13 -17 28 -14 46 1 5 -7 6 -18 3 -13 -3 -22
1 -25 12 -13 46 -19 89 -17 114 2 18 -4 34 -16 42 -10 8 -14 15 -9 15 6 0 1 7
-10 15 -11 8 -14 15 -6 15 6 0 12 8 12 18 0 10 5 23 11 29 8 8 6 15 -10 25
-11 7 -21 18 -21 25 0 7 -6 13 -12 14 -10 0 -10 2 0 6 6 2 12 14 12 24 0 11
-4 17 -10 14 -6 -4 -10 8 -10 29 0 19 -5 38 -11 41 -14 9 -8 93 8 126 9 18 10
35 3 59 -6 22 -6 38 0 44 13 13 13 29 0 21 -6 -3 -10 1 -10 9 0 8 5 18 10 21
15 9 2 25 -22 25 -20 0 -20 0 -1 33 12 20 32 36 53 43 30 10 36 17 43 54 l9
42 48 -6 c46 -6 49 -5 68 26 11 18 28 60 37 93 22 75 27 81 75 89 34 5 42 12
55 42 14 35 17 36 52 31 20 -4 40 -10 45 -15 11 -11 -8 -57 -40 -96 -22 -28
-24 -44 -6 -90 4 -11 -4 -20 -28 -32 -23 -11 -39 -28 -47 -50 -9 -25 -18 -34
-35 -34 -33 0 -52 -20 -70 -74 -21 -66 -21 -73 12 -81 15 -3 38 -13 50 -21 22
-15 23 -17 7 -34 -13 -14 -15 -28 -10 -57 5 -30 2 -44 -13 -64 -11 -13 -22
-44 -24 -69 -2 -25 -6 -52 -9 -60 -6 -21 62 -52 125 -58 32 -3 59 -12 73 -24
16 -15 44 -22 118 -28 53 -5 99 -11 102 -14 3 -3 19 8 37 24 30 29 47 31 90
14 13 -5 23 -2 32 11 15 20 91 28 98 10 3 -5 5 11 5 37 1 25 4 53 7 62 4 11 1
16 -10 16 -9 0 -16 5 -16 10 0 6 9 10 20 10 35 0 23 30 -12 31 l-33 1 29 8
c16 5 33 7 38 4 4 -3 8 -1 8 3 0 5 15 14 34 21 20 8 44 28 60 52 35 53 75 55
147 6 46 -31 54 -33 83 -24 44 15 94 65 117 118 l19 45 58 1 c31 0 85 7 119
15 58 13 64 16 78 51 20 51 19 58 -8 58 -27 0 -181 72 -192 90 -4 7 -2 16 5
20 7 5 2 9 -17 13 -15 3 -33 1 -39 -4 -7 -6 -16 -3 -25 8 -10 11 -10 14 -1 9
7 -4 15 -1 18 8 5 12 11 13 25 6 15 -8 17 -7 13 4 -7 18 25 36 131 70 64 21
99 26 181 26 73 0 104 -4 107 -12 4 -10 7 -10 15 0 6 9 29 12 70 11 69 -3 96
-13 72 -28 -12 -9 -12 -11 3 -17 9 -3 14 -11 11 -18 -3 -6 4 0 15 13 12 12 19
27 16 31 -3 5 -1 10 5 12 11 4 14 38 12 129 l-2 66 -39 7 c-31 5 -41 12 -51
36 -17 41 -23 43 -70 29 -37 -11 -42 -10 -65 11 -34 31 -35 86 -2 96 12 3 35
22 50 40 39 46 80 47 118 2 l27 -33 31 18 c30 18 31 18 68 -8 22 -14 43 -39
49 -58 10 -31 13 -32 80 -38 42 -3 86 -14 111 -27 52 -27 53 -27 53 -2 0 11 5
20 10 20 6 0 14 8 17 17 4 10 23 46 44 81 31 52 36 70 32 102 -5 36 -3 40 27
59 30 18 36 18 61 5 25 -12 27 -17 19 -40z m-1260 -650 c0 -2 -9 -4 -21 -4
-11 0 -18 4 -14 10 5 8 35 3 35 -6z m-273 -1293 c1 -11 -4 -22 -11 -24 -9 -4
-11 2 -8 19 5 29 17 32 19 5z m33 -31 c-6 -11 -8 -20 -5 -20 3 0 -2 -13 -12
-30 -9 -16 -21 -30 -26 -30 -5 0 -2 11 7 25 9 13 16 30 16 38 0 12 19 37 27
37 2 0 -1 -9 -7 -20z m-950 -20 c0 -5 -2 -10 -4 -10 -3 0 -8 5 -11 10 -3 6 -1
10 4 10 6 0 11 -4 11 -10z m731 -7 c13 -16 12 -17 -3 -4 -10 7 -18 15 -18 17
0 8 8 3 21 -13z m289 -128 c-7 -9 -15 -13 -17 -11 -7 7 7 26 19 26 6 0 6 -6
-2 -15z m1420 -425 c0 -5 -4 -10 -10 -10 -5 0 -10 5 -10 10 0 6 5 10 10 10 6
0 10 -4 10 -10z m-2307 -722 c-29 -71 -32 -123 -12 -187 13 -42 13 -43 -14
-67 -16 -13 -26 -28 -23 -33 10 -15 -5 -40 -19 -35 -8 3 -12 11 -9 19 3 8 -7
15 -30 19 -42 8 -52 21 -34 44 12 15 11 16 -5 3 -15 -12 -20 -11 -36 8 -10 11
-26 21 -35 21 -19 0 -22 16 -3 23 6 2 -4 7 -25 11 -20 3 -39 13 -42 22 -8 21
86 148 129 173 35 20 103 38 157 40 l27 1 -26 -62z m892 -355 c-3 -21 -11 -42
-16 -47 -13 -14 -11 -46 4 -46 6 0 -3 -9 -22 -21 -38 -23 -48 -20 -32 9 6 12
11 33 11 47 0 23 44 95 57 95 3 0 2 -17 -2 -37z"/>
<path d="M3680 6630 c0 -5 -13 -10 -30 -10 -23 0 -30 -4 -30 -20 0 -19 7 -20
146 -20 116 0 148 -3 160 -15 25 -24 54 -19 54 10 0 18 -5 25 -20 25 -11 0
-20 5 -20 10 0 6 -33 10 -79 10 -54 0 -81 4 -84 13 -4 9 -8 8 -16 -3 -10 -13
-12 -13 -21 0 -9 13 -11 13 -21 0 -8 -11 -12 -12 -16 -2 -6 14 -23 16 -23 2z"/>
<path d="M3540 6590 c0 -5 5 -10 10 -10 6 0 10 5 10 10 0 6 -4 10 -10 10 -5 0
-10 -4 -10 -10z"/>
<path d="M3580 6590 c0 -5 5 -10 10 -10 6 0 10 5 10 10 0 6 -4 10 -10 10 -5 0
-10 -4 -10 -10z"/>
<path d="M5380 6370 c0 -5 5 -10 10 -10 6 0 10 5 10 10 0 6 -4 10 -10 10 -5 0
-10 -4 -10 -10z"/>
<path d="M4316 6300 c18 -15 37 -45 44 -66 7 -22 19 -49 27 -62 8 -13 12 -31
8 -40 -3 -9 -3 -13 1 -9 14 13 41 -59 60 -154 14 -75 16 -107 8 -183 -6 -50
-8 -121 -6 -158 4 -67 4 -68 33 -68 30 0 39 14 17 24 -10 5 -10 7 0 12 6 3 12
14 12 25 0 10 5 19 10 19 6 0 10 37 10 90 0 53 4 90 10 90 6 0 10 14 10 30 0
17 -4 30 -10 30 -6 0 -10 37 -10 90 0 53 -4 90 -10 90 -5 0 -10 9 -10 20 0 11
-4 20 -10 20 -5 0 -10 14 -10 30 0 17 -4 30 -10 30 -5 0 -10 9 -10 20 0 11 -4
20 -10 20 -5 0 -10 8 -10 18 0 10 -9 24 -20 32 -11 8 -20 23 -20 33 0 15 -5
18 -25 15 -13 -3 -22 -2 -20 2 2 4 -17 12 -43 18 l-47 10 31 -28z m104 -70 c0
-5 -4 -10 -10 -10 -5 0 -10 5 -10 10 0 6 5 10 10 10 6 0 10 -4 10 -10z m40
-100 c0 -5 -4 -10 -10 -10 -5 0 -10 5 -10 10 0 6 5 10 10 10 6 0 10 -4 10 -10z
m40 -80 c0 -5 -4 -10 -10 -10 -5 0 -10 5 -10 10 0 6 5 10 10 10 6 0 10 -4 10
-10z"/>
<path d="M4480 6230 c0 -5 5 -10 10 -10 6 0 10 5 10 10 0 6 -4 10 -10 10 -5 0
-10 -4 -10 -10z"/>
<path d="M4420 5390 c0 -5 5 -10 10 -10 6 0 10 5 10 10 0 6 -4 10 -10 10 -5 0
-10 -4 -10 -10z"/>
<path d="M3331 5114 c0 -11 3 -14 6 -6 3 7 2 16 -1 19 -3 4 -6 -2 -5 -13z"/>
<path d="M2300 4990 c0 -5 5 -10 10 -10 6 0 10 5 10 10 0 6 -4 10 -10 10 -5 0
-10 -4 -10 -10z"/>
</g>
</svg>
